<?xml version="1.0" standalone="no"?>
<svg viewBox="0 0 200 200" xmlns="http://www.w3.org/2000/svg">
  <path fill="#8A3FFC" d="M37.2,-70.4C46.2,-59.2,50.2,-45.2,54.2,-33C58.2,-20.8,62.2,-10.4,64.9,1.6C67.6,13.5,69,27.1,64.2,37.9C59.4,48.8,48.5,56.9,36.8,66.6C25,76.4,12.5,87.7,0.9,86.2C-10.7,84.6,-21.4,70.1,-32.2,59.8C-43,49.6,-54,43.5,-65.2,34.3C-76.4,25,-87.9,12.5,-88,0C-88,-12.6,-76.7,-25.2,-66.1,-35.4C-55.5,-45.7,-45.5,-53.7,-34.6,-63.8C-23.8,-73.9,-11.9,-86.2,1.1,-88.1C14.1,-90,28.2,-81.6,37.2,-70.4Z" transform="translate(100 100)" />
</svg>
