<?xml version="1.0" standalone="no"?>
<svg viewBox="0 0 200 200" xmlns="http://www.w3.org/2000/svg">
  <path fill="#8A3FFC" d="M37.8,-70.2C47.4,-60,52.5,-46.6,59.6,-34.4C66.8,-22.2,75.9,-11.1,77.1,0.7C78.3,12.5,71.5,24.9,62.8,34.3C54,43.7,43.2,49.9,32.4,54.7C21.6,59.5,10.8,62.8,-0.6,63.8C-11.9,64.8,-23.9,63.4,-37.5,60.3C-51.1,57.1,-66.3,52.1,-75.3,41.8C-84.3,31.4,-87.1,15.7,-86.7,0.2C-86.3,-15.3,-82.8,-30.5,-73.1,-39.6C-63.4,-48.8,-47.5,-51.7,-34.3,-59.9C-21.1,-68,-10.5,-81.2,1.8,-84.3C14.1,-87.4,28.2,-80.4,37.8,-70.2Z" transform="translate(100 100)" />
</svg>
